<?xml version="1.0" encoding="utf-8"?>
<!-- Generator: Adobe Illustrator 23.0.6, SVG Export Plug-In . SVG Version: 6.00 Build 0)  -->
<svg version="1.1" xmlns="http://www.w3.org/2000/svg" xmlns:xlink="http://www.w3.org/1999/xlink" x="0px" y="0px"
	 viewBox="0 0 148.74 83.41" style="enable-background:new 0 0 148.74 83.41;" xml:space="preserve">
<style type="text/css">
	.st0{fill:#FFFFFF;}
	.st1{fill:#191919;}
	.st2{fill:#D72864;}
	.st3{fill:#8C195F;}
</style>
<g id="Schutzzone">
	<rect class="st0" width="148.74" height="83.41"/>
</g>
<g id="Logo">
	<g>
		<g>
			<path class="st1" d="M81.73,31.58c-4.31,0-7.69,3.33-7.69,7.58c0,4.44,3.31,7.8,7.69,7.8c4.38,0,7.69-3.35,7.69-7.8
				C89.42,34.91,86.04,31.58,81.73,31.58z M81.73,44.66c-2.85,0-5.08-2.42-5.08-5.5c0-2.97,2.23-5.29,5.08-5.29s5.08,2.32,5.08,5.29
				C86.8,42.25,84.57,44.66,81.73,44.66z"/>
			<path class="st1" d="M97.83,38.19c-1.52-0.63-2.84-1.18-2.84-2.39c0-1.09,1.02-1.91,2.38-1.91c1.64,0,2.94,0.96,3.3,1.26
				l1.09-2.04c-0.3-0.27-1.79-1.53-4.37-1.53c-2.82,0-4.95,1.84-4.95,4.27c0,2.56,2.23,3.52,4.21,4.37
				c1.56,0.67,2.91,1.25,2.91,2.49c0,1.34-1.15,1.93-2.29,1.93c-1.89,0-3.37-1.21-3.74-1.54l-1.37,1.89
				c0.34,0.34,2.13,1.96,5.07,1.96c2.86,0,4.87-1.77,4.87-4.31C102.08,39.95,99.82,39.02,97.83,38.19z"/>
			<polygon class="st1" points="114.6,31.83 104.95,31.83 104.95,33.91 108.59,33.91 108.59,46.7 110.95,46.7 110.95,33.91 
				114.6,33.91 			"/>
		</g>
		<g>
			<path class="st1" d="M74.98,55.89c0-1.73,0.95-2.99,2.67-2.99c1.7,0,2.52,1.26,2.52,2.87c0,1.89-0.91,3.12-2.63,3.12
				C75.8,58.89,74.98,57.62,74.98,55.89z M79.62,55.85c0-1.6-0.8-2.48-1.98-2.48c-1.2,0-2.1,0.89-2.1,2.52
				c0,1.64,0.83,2.53,2.03,2.53C78.77,58.41,79.62,57.57,79.62,55.85z"/>
			<path class="st1" d="M84.01,55.86l-0.53,0.06c-0.1-0.54-0.25-0.84-0.92-0.84c-0.71,0-0.88,0.31-0.88,0.66
				c0,0.48,0.36,0.59,0.98,0.74c0.75,0.18,1.42,0.34,1.42,1.23c0,0.7-0.53,1.17-1.51,1.17c-0.9,0-1.46-0.34-1.58-1.24l0.51-0.09
				c0.11,0.49,0.3,0.86,1.09,0.86c0.54,0,0.94-0.16,0.94-0.68c0-0.48-0.33-0.58-0.93-0.73c-0.68-0.18-1.48-0.28-1.48-1.21
				c0-0.79,0.68-1.18,1.45-1.18C83.56,54.62,83.91,55.11,84.01,55.86z"/>
			<path class="st1" d="M87.21,58.63c-0.2,0.14-0.6,0.26-0.93,0.26c-0.73,0-1.09-0.33-1.09-1.09v-2.64h-0.64V54.7h0.64v-1.17
				l0.54-0.08v1.25h1.14v0.45h-1.14v2.57c0,0.46,0.1,0.73,0.63,0.73c0.25,0,0.55-0.1,0.73-0.21L87.21,58.63z"/>
			<path class="st1" d="M90.7,55.86l-0.53,0.06c-0.1-0.54-0.25-0.84-0.92-0.84c-0.71,0-0.88,0.31-0.88,0.66
				c0,0.48,0.36,0.59,0.98,0.74c0.75,0.18,1.42,0.34,1.42,1.23c0,0.7-0.53,1.17-1.51,1.17c-0.9,0-1.46-0.34-1.58-1.24l0.51-0.09
				c0.11,0.49,0.3,0.86,1.09,0.86c0.54,0,0.94-0.16,0.94-0.68c0-0.48-0.33-0.58-0.93-0.73c-0.68-0.18-1.48-0.28-1.48-1.21
				c0-0.79,0.68-1.18,1.45-1.18C90.25,54.62,90.61,55.11,90.7,55.86z"/>
			<path class="st1" d="M91.6,56.77c0-1.43,0.72-2.15,1.94-2.15c0.81,0,1.44,0.46,1.49,1.37l-0.54,0.07c-0.07-0.66-0.38-0.98-1-0.98
				c-0.64,0-1.33,0.35-1.33,1.62c0,1.34,0.66,1.7,1.31,1.7c0.59,0,0.97-0.26,1.08-0.9l0.5,0.1c-0.14,0.91-0.86,1.28-1.62,1.28
				C92.1,58.89,91.6,58.01,91.6,56.77z"/>
			<path class="st1" d="M99.45,58.79h-0.54v-2.7c0-0.62-0.22-0.99-0.85-0.99c-0.54,0-1.11,0.36-1.36,0.58v3.11h-0.54v-6.04h0.54
				v2.46c0.44-0.33,0.94-0.58,1.5-0.58c0.87,0,1.24,0.49,1.24,1.41V58.79z"/>
			<path class="st1" d="M101.45,58.79l-1.31-4.09h0.55l1.09,3.54l0.97-3.54h0.58l0.95,3.53l1.08-3.53h0.51l-1.29,4.09h-0.65
				l-0.92-3.49l-0.93,3.49H101.45z"/>
			<path class="st1" d="M106.38,56.75c0-1.5,0.86-2.13,1.9-2.13c1.12,0,1.58,0.76,1.58,1.74c-0.01,0.16-0.02,0.33-0.04,0.5h-2.86
				c0.03,1.22,0.6,1.55,1.31,1.55c0.64,0,0.9-0.26,1.03-0.78l0.5,0.1c-0.18,0.81-0.82,1.16-1.58,1.16
				C106.8,58.89,106.38,57.88,106.38,56.75z M109.29,56.42c0.02-0.84-0.3-1.33-1.06-1.33c-0.62,0-1.23,0.38-1.27,1.33H109.29z"/>
			<path class="st1" d="M111.31,53.71c-0.27,0-0.43-0.15-0.43-0.42s0.16-0.42,0.43-0.42c0.27,0,0.43,0.15,0.43,0.42
				S111.58,53.71,111.31,53.71z M111.57,58.79h-0.54V54.7h0.54V58.79z"/>
			<path class="st1" d="M113.13,58.34h2.55v0.45h-3.17v-0.38l2.46-3.26h-2.42V54.7h3.05v0.38L113.13,58.34z"/>
			<path class="st1" d="M116.22,56.75c0-1.5,0.86-2.13,1.9-2.13c1.12,0,1.58,0.76,1.58,1.74c-0.01,0.16-0.02,0.33-0.04,0.5h-2.86
				c0.03,1.22,0.6,1.55,1.31,1.55c0.64,0,0.9-0.26,1.03-0.78l0.5,0.1c-0.18,0.81-0.82,1.16-1.58,1.16
				C116.63,58.89,116.22,57.88,116.22,56.75z M119.13,56.42c0.02-0.84-0.3-1.33-1.06-1.33c-0.62,0-1.23,0.38-1.27,1.33H119.13z"/>
			<path class="st1" d="M122.87,55.18c-0.5-0.09-1.14,0.14-1.47,0.47v3.13h-0.54V54.7h0.44l0.05,0.57c0.39-0.53,0.83-0.66,1.39-0.65
				c0.04,0,0.08,0,0.13,0V55.18z"/>
			<path class="st1" d="M75.92,67.99h-0.54V62.2h3.27v0.46h-2.73v2.25h2.54v0.47h-2.54V67.99z"/>
			<path class="st1" d="M82.2,67.33c0,0.22,0.04,0.32,0.25,0.32c0.07,0,0.14-0.02,0.25-0.05l0.03,0.34
				c-0.16,0.08-0.3,0.11-0.49,0.11c-0.38,0-0.51-0.23-0.53-0.51c-0.3,0.32-0.78,0.54-1.36,0.54c-1.04,0-1.21-0.71-1.21-1.1
				c0-1.16,1.06-1.38,1.98-1.38c0.23,0,0.38,0.01,0.54,0.02v-0.41c0-0.62-0.18-0.96-0.89-0.96c-0.65,0-0.87,0.26-0.96,0.74
				l-0.5-0.09c0.13-0.76,0.62-1.08,1.5-1.08c0.98,0,1.39,0.38,1.39,1.4V67.33z M81.67,66.06c-0.13-0.02-0.27-0.02-0.5-0.02
				c-0.56,0-1.46,0.04-1.46,0.87c0,0.4,0.14,0.75,0.78,0.75c0.47,0,0.93-0.26,1.19-0.56V66.06z"/>
			<path class="st1" d="M83.3,65.98c0-1.43,0.72-2.15,1.94-2.15c0.81,0,1.44,0.46,1.49,1.37l-0.54,0.07c-0.07-0.66-0.38-0.98-1-0.98
				c-0.64,0-1.33,0.35-1.33,1.62c0,1.34,0.66,1.7,1.31,1.7c0.59,0,0.97-0.26,1.08-0.9l0.5,0.1c-0.14,0.91-0.86,1.28-1.62,1.28
				C83.8,68.09,83.3,67.21,83.3,65.98z"/>
			<path class="st1" d="M91.15,67.99h-0.54v-2.7c0-0.62-0.22-0.99-0.85-0.99c-0.54,0-1.11,0.36-1.36,0.58v3.11h-0.54v-6.04h0.54
				v2.46c0.44-0.33,0.94-0.58,1.5-0.58c0.87,0,1.24,0.49,1.24,1.41V67.99z"/>
			<path class="st1" d="M95.81,67.99h-0.54v-2.7c0-0.62-0.22-0.99-0.85-0.99c-0.54,0-1.11,0.36-1.36,0.58v3.11h-0.54v-6.04h0.54
				v2.46c0.44-0.33,0.94-0.58,1.5-0.58c0.87,0,1.24,0.49,1.24,1.41V67.99z"/>
			<path class="st1" d="M96.9,65.97c0-1.33,0.69-2.14,1.94-2.14c1.25,0,1.77,0.82,1.77,2.04c0,1.34-0.54,2.22-1.87,2.22
				C97.36,68.09,96.9,67.17,96.9,65.97z M100.05,65.91c0-1.21-0.46-1.62-1.24-1.62c-0.81,0-1.36,0.5-1.36,1.65
				c0,1.14,0.44,1.7,1.33,1.7C99.57,67.63,100.05,67.15,100.05,65.91z"/>
			<path class="st1" d="M101.5,65.98c0-1.43,0.72-2.15,1.94-2.15c0.81,0,1.44,0.46,1.49,1.37l-0.54,0.07
				c-0.07-0.66-0.38-0.98-1-0.98c-0.64,0-1.33,0.35-1.33,1.62c0,1.34,0.66,1.7,1.31,1.7c0.59,0,0.97-0.26,1.08-0.9l0.5,0.1
				c-0.14,0.91-0.86,1.28-1.62,1.28C101.99,68.09,101.5,67.21,101.5,65.98z"/>
			<path class="st1" d="M109.34,67.99h-0.54v-2.7c0-0.62-0.22-0.99-0.85-0.99c-0.54,0-1.11,0.36-1.36,0.58v3.11h-0.54v-6.04h0.54
				v2.46c0.44-0.33,0.94-0.58,1.5-0.58c0.87,0,1.24,0.49,1.24,1.41V67.99z"/>
			<path class="st1" d="M113.39,65.06l-0.53,0.06c-0.1-0.54-0.25-0.84-0.92-0.84c-0.71,0-0.88,0.31-0.88,0.66
				c0,0.48,0.36,0.59,0.98,0.74c0.75,0.18,1.42,0.34,1.42,1.23c0,0.7-0.53,1.17-1.51,1.17c-0.9,0-1.46-0.34-1.58-1.24l0.51-0.09
				c0.11,0.49,0.3,0.86,1.09,0.86c0.54,0,0.94-0.16,0.94-0.68c0-0.48-0.33-0.58-0.93-0.73c-0.68-0.18-1.48-0.28-1.48-1.21
				c0-0.79,0.68-1.18,1.45-1.18C112.94,63.82,113.29,64.31,113.39,65.06z"/>
			<path class="st1" d="M114.29,65.98c0-1.43,0.72-2.15,1.94-2.15c0.81,0,1.44,0.46,1.49,1.37l-0.54,0.07
				c-0.07-0.66-0.38-0.98-1-0.98c-0.64,0-1.33,0.35-1.33,1.62c0,1.34,0.66,1.7,1.31,1.7c0.59,0,0.97-0.26,1.08-0.9l0.5,0.1
				c-0.14,0.91-0.86,1.28-1.62,1.28C114.78,68.09,114.29,67.21,114.29,65.98z"/>
			<path class="st1" d="M122.13,67.99h-0.54v-2.7c0-0.62-0.22-0.99-0.85-0.99c-0.54,0-1.11,0.36-1.36,0.58v3.11h-0.54v-6.04h0.54
				v2.46c0.44-0.33,0.94-0.58,1.5-0.58c0.87,0,1.24,0.49,1.24,1.41V67.99z"/>
			<path class="st1" d="M123.5,63.9h0.54v2.7c0,0.62,0.19,0.99,0.82,0.99c0.54,0,1.11-0.36,1.36-0.58V63.9h0.54v4.09h-0.47
				l-0.03-0.51c-0.44,0.33-0.97,0.59-1.54,0.59c-0.87,0-1.21-0.49-1.21-1.41V63.9z"/>
			<path class="st1" d="M128.7,67.99h-0.54v-6.04h0.54V67.99z"/>
			<path class="st1" d="M129.82,65.95c0-1.5,0.86-2.13,1.9-2.13c1.12,0,1.58,0.76,1.58,1.74c-0.01,0.16-0.02,0.33-0.04,0.5h-2.86
				c0.03,1.22,0.6,1.55,1.31,1.55c0.64,0,0.9-0.26,1.03-0.78l0.5,0.1c-0.18,0.81-0.82,1.16-1.58,1.16
				C130.24,68.09,129.82,67.08,129.82,65.95z M132.73,65.62c0.02-0.84-0.3-1.34-1.06-1.34c-0.62,0-1.23,0.38-1.27,1.34H132.73z"/>
		</g>
		<g>
			<path class="st1" d="M56.57,22.51c-4.37-4.4-10.42-7.13-17.1-7.13c-13.29,0-24.09,10.81-24.09,24.09
				c0,13.29,10.81,24.09,24.09,24.09c6.64,0,12.67-2.7,17.03-7.06c4.36-4.36,11.97-10.39,11.97-17.03
				C68.48,32.87,60.9,26.87,56.57,22.51z M55.36,53.15c-3.49,3.49-8.31,5.65-13.62,5.65c-0.6,0-1.19-0.03-1.77-0.08
				c-0.3-0.03-0.59-0.06-0.89-0.1c-0.58,0.08-1.17,0.14-1.77,0.16c-0.29,0.01-0.59,0.02-0.89,0.02c-10.63,0-19.28-8.65-19.28-19.28
				c0-10.63,8.65-19.28,19.28-19.28c0.3,0,0.59,0.01,0.88,0.02c0.6,0.03,1.19,0.08,1.77,0.16c0.29-0.04,0.59-0.08,0.88-0.1
				c0.58-0.05,1.17-0.08,1.77-0.08c5.34,0,10.18,2.18,13.68,5.71c3.46,3.49,9.53,8.28,9.53,13.57
				C64.94,44.84,58.85,49.66,55.36,53.15z"/>
			<path class="st2" d="M22.46,39.52c0-9.73,7.01-17.59,16.62-19.09l0,0c-11.85,0.28-20.16,8.76-20.16,19.09
				c0,10.33,9.96,19.37,20.16,19.09c0,0-0.58,0.08,0,0C29.71,57.31,22.46,49.25,22.46,39.52z"/>
			<path class="st3" d="M51.82,53.15c-3.55,3.56-8.13,5.04-12.74,5.46c0.29,0.04,0.59,0.08,0.89,0.1c0.58,0.05,1.17,0.08,1.77,0.08
				c5.31,0,10.13-2.16,13.62-5.65c3.49-3.49,9.58-8.31,9.58-13.62c0-5.29-6.07-10.08-9.53-13.57c-3.49-3.52-8.34-5.71-13.68-5.71
				c-0.6,0-1.19,0.03-1.77,0.08c-0.3,0.03-0.59,0.06-0.88,0.1c4.64,0.42,9.69,2.39,12.79,5.52c3.46,3.49,9.53,8.28,9.53,13.57
				C61.4,44.84,55.31,49.66,51.82,53.15z"/>
			<path class="st3" d="M18.92,39.52c0-10.33,8.31-18.8,20.16-19.09c-0.58-0.08-1.17-0.14-1.77-0.16c-0.29-0.01-0.59-0.02-0.88-0.02
				c-10.63,0-19.28,8.65-19.28,19.28c0,10.63,8.65,19.28,19.28,19.28c0.3,0,0.59-0.01,0.89-0.02c0.6-0.03,1.19-0.08,1.77-0.16
				C28.9,58.89,18.92,49.86,18.92,39.52z"/>
			<path class="st2" d="M50.05,53.15c-2.9,2.9-6.71,4.87-10.97,5.46c4.61-0.42,9.18-1.91,12.74-5.46c3.49-3.49,9.58-8.31,9.58-13.62
				c0-5.29-6.07-10.08-9.53-13.57c-3.1-3.13-8.16-5.09-12.79-5.52c4.28,0.59,8.12,2.59,11.02,5.52c3.46,3.49,9.53,8.28,9.53,13.57
				C59.63,44.84,53.54,49.66,50.05,53.15z"/>
		</g>
	</g>
</g>
</svg>
